<svg xmlns="http://www.w3.org/2000/svg" viewBox="0 0 512 512">
  <defs>
    <linearGradient id="bg" x1="0" y1="0" x2="0" y2="1">
      <stop offset="0" stop-color="#FF9933"/>
      <stop offset="0.5" stop-color="#FFFFFF"/>
      <stop offset="1" stop-color="#138808"/>
    </linearGradient>
  </defs>
  <rect width="512" height="512" rx="96" fill="url(#bg)"/>
  <circle cx="256" cy="256" r="120" fill="none" stroke="#000080" stroke-width="14"/>
  <circle cx="256" cy="256" r="18" fill="#000080"/>
  <g stroke="#000080" stroke-width="6" fill="none">
    <line x1="256" y1="146" x2="256" y2="366"/>
    <line x1="146" y1="256" x2="366" y2="256"/>
    <line x1="178" y1="178" x2="334" y2="334"/>
    <line x1="334" y1="178" x2="178" y2="334"/>
    <line x1="256" y1="146" x2="316" y2="166" transform="rotate(15 256 256)"/>
    <line x1="256" y1="146" x2="316" y2="166" transform="rotate(30 256 256)"/>
    <line x1="256" y1="146" x2="316" y2="166" transform="rotate(45 256 256)"/>
    <line x1="256" y1="146" x2="316" y2="166" transform="rotate(60 256 256)"/>
    <line x1="256" y1="146" x2="316" y2="166" transform="rotate(75 256 256)"/>
    <line x1="256" y1="146" x2="316" y2="166" transform="rotate(105 256 256)"/>
    <line x1="256" y1="146" x2="316" y2="166" transform="rotate(120 256 256)"/>
    <line x1="256" y1="146" x2="316" y2="166" transform="rotate(135 256 256)"/>
    <line x1="256" y1="146" x2="316" y2="166" transform="rotate(150 256 256)"/>
    <line x1="256" y1="146" x2="316" y2="166" transform="rotate(165 256 256)"/>
    <line x1="256" y1="146" x2="316" y2="166" transform="rotate(195 256 256)"/>
    <line x1="256" y1="146" x2="316" y2="166" transform="rotate(210 256 256)"/>
    <line x1="256" y1="146" x2="316" y2="166" transform="rotate(225 256 256)"/>
    <line x1="256" y1="146" x2="316" y2="166" transform="rotate(240 256 256)"/>
    <line x1="256" y1="146" x2="316" y2="166" transform="rotate(255 256 256)"/>
    <line x1="256" y1="146" x2="316" y2="166" transform="rotate(285 256 256)"/>
    <line x1="256" y1="146" x2="316" y2="166" transform="rotate(300 256 256)"/>
    <line x1="256" y1="146" x2="316" y2="166" transform="rotate(315 256 256)"/>
    <line x1="256" y1="146" x2="316" y2="166" transform="rotate(330 256 256)"/>
    <line x1="256" y1="146" x2="316" y2="166" transform="rotate(345 256 256)"/>
  </g>
</svg>
